# xmcd
# 
# Track frame offsets:
#     150
#     17750
#     37113
#     57345
#     73026
#     102911
#     117444
#     133050
#     159768
#     176533
#     197885
#     216692
#     232135
#     247363
#     268832
#     281700
#     304558
# 
# Disc length: 4317
# 
# Revision: 0
# Processed by: cddbd v1.5.2PL0 Copyright (c) Steve Scherf et al.
# Submitted via: fre:ac v1.0.31
# 
DISCID=0f10db11
DTITLE=Various Artist - StoMo's Artist Collection: Blues and Boogie Vol. 5
DYEAR=2012
DGENRE=Blues
TTITLE0=Angela Brown - I've Got A Good Thing
TTITLE1=Morblus - Better Half Of Me
TTITLE2=Crazy Hambones - Tijuana Jail
TTITLE3=Rag Doll - Prove It On Me Blues
TTITLE4=Amy Zapf's Mad Dawgs - Louisiana 1927
TTITLE5=Steve 'Big Man' Clayton - Someday My Luck Is Gonna Change
TTITLE6=Angela Brown - You Didn't want What You Had
TTITLE7=Streetrats - Dream A While
TTITLE8=Dave Moretti Blues Revue - One Way Ticket
TTITLE9=Little Willie Littlefield - Drifting Blues
TTITLE10=Vince Weber - Boogie Woogie Country Girl
TTITLE11=Jan Hirte's Blue Ribbon feat. Nayeli - All I Could Do Was Cry
TTITLE12=Peter Crow C. - You Got To Take Sick And Die One Of These Days
TTITLE13=Henning Pertiet - Meade's Special Tea
TTITLE14=Jan Preston - My Kinda Car
TTITLE15=Morblus - I Can't Go Wrong
TTITLE16=Calo Rapallo - Das Wrack In Der Bucht
EXTD=
EXTT0=
EXTT1=
EXTT2=
EXTT3=
EXTT4=
EXTT5=
EXTT6=
EXTT7=
EXTT8=
EXTT9=
EXTT10=
EXTT11=
EXTT12=
EXTT13=
EXTT14=
EXTT15=
EXTT16=
PLAYORDER=
